<svg width="297" height="205" viewBox="0 0 297 205" fill="none" xmlns="http://www.w3.org/2000/svg">
<path d="M296.47 175.65V179.384H281.404V175.65H296.47ZM285.795 168.779H290.262V196.113C290.262 197.357 290.445 198.291 290.811 198.913C291.189 199.523 291.669 199.934 292.249 200.145C292.842 200.344 293.467 200.444 294.123 200.444C294.615 200.444 295.019 200.419 295.334 200.369C295.65 200.307 295.902 200.257 296.092 200.22L297 204.178C296.697 204.29 296.274 204.402 295.732 204.514C295.189 204.639 294.502 204.701 293.669 204.701C292.407 204.701 291.171 204.433 289.959 203.898C288.761 203.363 287.764 202.548 286.969 201.452C286.186 200.357 285.795 198.975 285.795 197.307V168.779Z" fill="#F5F5F5"/>
<path d="M257.116 187.076V204.328H252.65V175.65H256.965V180.131H257.344C258.025 178.675 259.06 177.505 260.448 176.621C261.835 175.725 263.627 175.277 265.823 175.277C267.791 175.277 269.513 175.675 270.99 176.472C272.466 177.256 273.614 178.451 274.434 180.056C275.255 181.65 275.665 183.666 275.665 186.106V204.328H271.198V186.404C271.198 184.151 270.605 182.396 269.419 181.139C268.233 179.87 266.605 179.235 264.536 179.235C263.11 179.235 261.835 179.54 260.712 180.15C259.602 180.76 258.725 181.65 258.082 182.82C257.438 183.99 257.116 185.409 257.116 187.076Z" fill="#F5F5F5"/>
<path d="M233.817 204.925C231.016 204.925 228.6 204.315 226.569 203.096C224.55 201.863 222.991 200.146 221.894 197.943C220.808 195.727 220.266 193.151 220.266 190.213C220.266 187.276 220.808 184.687 221.894 182.446C222.991 180.193 224.518 178.438 226.474 177.181C228.442 175.912 230.739 175.277 233.363 175.277C234.877 175.277 236.373 175.526 237.849 176.024C239.325 176.522 240.669 177.331 241.88 178.451C243.092 179.559 244.057 181.027 244.776 182.857C245.495 184.687 245.855 186.94 245.855 189.616V191.483H223.446V187.674H241.313C241.313 186.056 240.984 184.612 240.328 183.342C239.685 182.073 238.764 181.071 237.565 180.336C236.379 179.602 234.978 179.235 233.363 179.235C231.584 179.235 230.045 179.671 228.745 180.542C227.458 181.401 226.468 182.521 225.774 183.903C225.08 185.284 224.733 186.765 224.733 188.346V190.885C224.733 193.051 225.111 194.887 225.868 196.393C226.638 197.887 227.704 199.025 229.067 199.81C230.43 200.581 232.013 200.967 233.817 200.967C234.991 200.967 236.051 200.805 236.997 200.482C237.956 200.146 238.783 199.648 239.477 198.988C240.171 198.316 240.707 197.482 241.085 196.486L245.401 197.681C244.946 199.125 244.183 200.395 243.111 201.49C242.038 202.573 240.713 203.419 239.136 204.029C237.559 204.626 235.786 204.925 233.817 204.925Z" fill="#F5F5F5"/>
<path d="M175.305 204.328V175.65H179.62V180.131H179.999C180.605 178.6 181.583 177.411 182.933 176.565C184.283 175.706 185.904 175.277 187.797 175.277C189.715 175.277 191.311 175.706 192.585 176.565C193.872 177.411 194.876 178.6 195.595 180.131H195.898C196.642 178.65 197.759 177.474 199.248 176.602C200.737 175.719 202.522 175.277 204.604 175.277C207.203 175.277 209.329 176.08 210.982 177.685C212.635 179.279 213.462 181.762 213.462 185.135V204.328H208.995V185.135C208.995 183.019 208.408 181.506 207.235 180.598C206.061 179.689 204.68 179.235 203.09 179.235C201.046 179.235 199.462 179.845 198.339 181.065C197.216 182.272 196.655 183.803 196.655 185.658V204.328H192.112V184.687C192.112 183.056 191.576 181.743 190.503 180.747C189.431 179.739 188.049 179.235 186.358 179.235C185.198 179.235 184.112 179.54 183.103 180.15C182.106 180.76 181.299 181.606 180.68 182.689C180.075 183.759 179.772 184.998 179.772 186.404V204.328H175.305Z" fill="#F5F5F5"/>
<path d="M153.828 205C151.986 205 150.314 204.658 148.812 203.973C147.311 203.276 146.119 202.274 145.235 200.967C144.352 199.648 143.91 198.055 143.91 196.188C143.91 194.545 144.238 193.213 144.895 192.192C145.551 191.159 146.428 190.35 147.525 189.765C148.623 189.18 149.835 188.744 151.159 188.458C152.497 188.159 153.841 187.923 155.191 187.749C156.957 187.525 158.389 187.357 159.487 187.244C160.598 187.12 161.405 186.915 161.91 186.628C162.427 186.342 162.686 185.844 162.686 185.135V184.985C162.686 183.143 162.175 181.712 161.153 180.691C160.143 179.671 158.61 179.16 156.554 179.16C154.421 179.16 152.749 179.621 151.538 180.542C150.327 181.463 149.475 182.446 148.983 183.492L144.743 181.998C145.5 180.256 146.51 178.899 147.771 177.928C149.046 176.945 150.434 176.26 151.935 175.874C153.45 175.476 154.938 175.277 156.402 175.277C157.336 175.277 158.408 175.389 159.62 175.613C160.844 175.825 162.023 176.266 163.159 176.939C164.307 177.611 165.26 178.625 166.017 179.982C166.774 181.338 167.153 183.156 167.153 185.433V204.328H162.686V200.444H162.459C162.156 201.067 161.651 201.733 160.945 202.442C160.238 203.152 159.298 203.755 158.124 204.253C156.951 204.751 155.519 205 153.828 205ZM154.509 201.042C156.276 201.042 157.765 200.7 158.976 200.015C160.2 199.33 161.121 198.447 161.739 197.364C162.37 196.281 162.686 195.142 162.686 193.947V189.914C162.497 190.138 162.08 190.344 161.437 190.53C160.806 190.705 160.074 190.86 159.241 190.997C158.421 191.122 157.62 191.234 156.837 191.333C156.068 191.42 155.443 191.495 154.964 191.557C153.803 191.707 152.718 191.949 151.708 192.285C150.711 192.609 149.904 193.101 149.286 193.76C148.68 194.408 148.377 195.291 148.377 196.412C148.377 197.943 148.951 199.1 150.099 199.884C151.26 200.656 152.73 201.042 154.509 201.042Z" fill="#F5F5F5"/>
<path d="M118.562 187.076V204.328H114.096V175.65H118.411V180.131H118.79C119.471 178.675 120.506 177.505 121.894 176.621C123.282 175.725 125.073 175.277 127.269 175.277C129.237 175.277 130.96 175.675 132.436 176.472C133.912 177.256 135.06 178.451 135.88 180.056C136.701 181.65 137.111 183.666 137.111 186.106V204.328H132.644V186.404C132.644 184.151 132.051 182.396 130.865 181.139C129.679 179.87 128.051 179.235 125.982 179.235C124.556 179.235 123.282 179.54 122.159 180.15C121.048 180.76 120.171 181.65 119.528 182.82C118.884 183.99 118.562 185.409 118.562 187.076Z" fill="#F5F5F5"/>
<path d="M94.2651 204.328V175.65H98.5805V179.982H98.8833C99.4132 178.563 100.372 177.411 101.76 176.528C103.148 175.644 104.713 175.202 106.454 175.202C106.782 175.202 107.192 175.208 107.684 175.221C108.176 175.233 108.549 175.252 108.801 175.277V179.758C108.65 179.72 108.303 179.664 107.76 179.59C107.23 179.503 106.669 179.459 106.075 179.459C104.662 179.459 103.4 179.751 102.29 180.336C101.192 180.909 100.322 181.706 99.6782 182.726C99.0473 183.734 98.7319 184.886 98.7319 186.18V204.328H94.2651Z" fill="#F5F5F5"/>
<path d="M81.6176 192.603V175.65H86.0843V204.328H81.6176V199.474H81.3147C80.6334 200.93 79.5735 202.168 78.135 203.189C76.6966 204.197 74.8796 204.701 72.6841 204.701C70.8671 204.701 69.252 204.309 67.8388 203.525C66.4256 202.728 65.3153 201.534 64.5077 199.94C63.7002 198.335 63.2964 196.312 63.2964 193.873V175.65H67.7631V193.574C67.7631 195.665 68.3562 197.333 69.5422 198.577C70.7409 199.822 72.2677 200.444 74.1225 200.444C75.2329 200.444 76.3622 200.164 77.5104 199.604C78.6713 199.044 79.6429 198.185 80.4252 197.028C81.2201 195.87 81.6176 194.395 81.6176 192.603Z" fill="#F5F5F5"/>
<path d="M43.3049 204.925C40.6804 204.925 38.3776 204.309 36.3966 203.077C34.4282 201.845 32.8888 200.121 31.7785 197.905C30.6807 195.69 30.1318 193.101 30.1318 190.138C30.1318 187.151 30.6807 184.544 31.7785 182.316C32.8888 180.088 34.4282 178.357 36.3966 177.125C38.3776 175.893 40.6804 175.277 43.3049 175.277C45.9294 175.277 48.2259 175.893 50.1943 177.125C52.1753 178.357 53.7147 180.088 54.8124 182.316C55.9228 184.544 56.478 187.151 56.478 190.138C56.478 193.101 55.9228 195.69 54.8124 197.905C53.7147 200.121 52.1753 201.845 50.1943 203.077C48.2259 204.309 45.9294 204.925 43.3049 204.925ZM43.3049 200.967C45.2985 200.967 46.9389 200.463 48.2259 199.455C49.5129 198.447 50.4656 197.121 51.0838 195.478C51.7021 193.835 52.0113 192.055 52.0113 190.138C52.0113 188.222 51.7021 186.435 51.0838 184.78C50.4656 183.125 49.5129 181.787 48.2259 180.766C46.9389 179.745 45.2985 179.235 43.3049 179.235C41.3113 179.235 39.671 179.745 38.3839 180.766C37.0969 181.787 36.1443 183.125 35.526 184.78C34.9077 186.435 34.5986 188.222 34.5986 190.138C34.5986 192.055 34.9077 193.835 35.526 195.478C36.1443 197.121 37.0969 198.447 38.3839 199.455C39.671 200.463 41.3113 200.967 43.3049 200.967Z" fill="#F5F5F5"/>
<path d="M0 170.198V166.091H29.0716V170.198H16.8827V204.327H12.1889V170.198H0Z" fill="#F5F5F5"/>
<path d="M220.766 0.00556959C200.535 0.235414 182.611 8.23 169.616 21.2212L169.606 21.2112L144.001 47.2136L99.2553 92.6528C99.2553 92.6528 97.3055 94.6315 96.3257 95.6208C96.3158 95.6308 96.3059 95.6408 96.296 95.6508C90.9217 101.107 83.37 104.455 74.7592 104.555C57.5477 104.745 44.3248 91.8234 44.1466 74.645C43.9684 57.6066 56.9043 44.2256 73.7398 44.0358C90.12 43.8559 103.016 55.3881 104.62 71.0774L138.716 36.251C125.691 14.0161 101.373 -0.324207 72.6808 0.00556959C31.3394 0.465258 -0.421361 33.313 0.0042271 75.1547C0.439712 117.356 32.9032 149.474 75.165 148.995C95.9694 148.765 114.25 140.381 127.403 127.349C127.542 127.209 127.69 127.08 127.829 126.94L128.284 126.47L152.879 101.497C163.44 129.858 189.589 149.294 222.458 148.915C264.759 148.435 297.451 115.687 296.995 73.6357C296.54 31.4743 263.473 -0.474106 220.766 0.00556959ZM222.844 104.555C205.632 104.745 192.41 91.8334 192.231 74.645C192.053 57.6066 204.989 44.2256 221.825 44.0358C239.214 43.8459 252.685 56.8571 252.873 74.0254C253.061 91.1538 240.066 104.355 222.844 104.555Z" fill="#F5F5F5"/>
</svg>
